<?xml version="1.0" encoding="UTF-8" standalone="no"?>
<!-- Created with Inkscape (http://www.inkscape.org/) -->

<svg
   width="144.5985mm"
   height="157.77579mm"
   viewBox="0 0 144.5985 157.77579"
   version="1.1"
   id="svg1"
   xml:space="preserve"
   xmlns="http://www.w3.org/2000/svg"
   xmlns:svg="http://www.w3.org/2000/svg"><defs
     id="defs1" /><g
     id="layer1"
     transform="translate(-32.049241,-67.10848)"><path
       style="fill:#000000"
       d="m 62.410888,224.80323 c -0.321023,-0.19841 -0.289374,-0.41581 0.20448,-1.40466 0.321359,-0.64346 0.585022,-1.27595 0.585918,-1.40553 8.97e-4,-0.12958 0.156927,-0.53326 0.346733,-0.89706 0.189807,-0.3638 0.678422,-1.67349 1.085811,-2.91042 0.40739,-1.23692 0.958905,-2.73345 1.22559,-3.3256 0.562708,-1.24946 1.22344,-3.02556 1.617256,-4.34731 0.151752,-0.50933 0.36708,-1.04511 0.478507,-1.19063 0.111427,-0.14552 0.350205,-0.72257 0.530619,-1.28235 0.180413,-0.55977 0.492853,-1.33367 0.694309,-1.71979 0.201457,-0.38611 0.368107,-0.88062 0.370334,-1.0989 0.0022,-0.21828 0.296894,-0.99219 0.654814,-1.71979 0.357921,-0.7276 0.654443,-1.44198 0.658937,-1.5875 0.0045,-0.14552 0.361588,-0.97896 0.79354,-1.85208 0.431952,-0.87313 1.09607,-2.42094 1.475817,-3.43959 0.823176,-2.20811 1.585161,-4.09332 2.266659,-5.60788 0.274694,-0.61048 0.499444,-1.22042 0.499444,-1.35543 0,-0.28257 0.788159,-2.18464 1.761736,-4.25162 0.990108,-2.10207 2.207932,-5.05883 2.518747,-6.11527 0.149847,-0.50933 0.363617,-1.04511 0.475044,-1.19063 0.111426,-0.14552 0.345468,-0.74083 0.520092,-1.32292 0.174624,-0.58208 0.421578,-1.29645 0.548786,-1.5875 1.187987,-2.71801 4.233208,-10.47043 4.624918,-11.77395 0.10933,-0.36381 0.29112,-0.78052 0.40398,-0.92605 0.24348,-0.31394 1.05295,-2.98984 1.05295,-3.48081 0,-0.18813 -0.36325,-0.5299 -0.80722,-0.75948 -0.93573,-0.48389 -0.89957,-0.81116 0.30298,-2.7424 0.41761,-0.67067 0.87237,-1.47366 1.01058,-1.78443 0.52727,-1.1856 2.22489,-2.42168 5.88746,-4.28684 2.08596,-1.06227 4.66568,-2.42922 5.73272,-3.03767 1.067031,-0.60846 2.257661,-1.27248 2.645831,-1.47561 0.38817,-0.20313 1.30108,-0.75032 2.02869,-1.21599 0.7276,-0.46567 1.7694,-1.11285 2.3151,-1.43819 1.60819,-0.95878 1.30914,-1.29509 -1.88075,-2.11506 -1.21632,-0.31266 -2.67009,-0.80243 -3.23061,-1.08839 -0.56051,-0.28595 -1.18423,-0.51992 -1.38603,-0.51992 -0.451461,0 -7.407941,-2.27258 -8.557701,-2.79568 -0.45855,-0.20862 -1.02169,-0.37932 -1.25142,-0.37932 -0.22972,0 -0.86657,-0.17253 -1.41522,-0.3834 -0.54865,-0.21088 -1.49493,-0.5108 -2.10286,-0.6665 -0.88316,-0.22619 -1.42826,-0.65738 -2.711981,-2.14521 -0.88366,-1.02416 -1.606656,-2.03471 -1.606656,-2.24567 0,-0.21095 0.297657,-0.64236 0.661459,-0.95868 0.363802,-0.31632 0.661458,-0.73751 0.661458,-0.93599 0,-0.19847 -0.506016,-1.12191 -1.124479,-2.0521 -0.618464,-0.93019 -1.660261,-2.5983 -2.315104,-3.7069 -0.654844,-1.10861 -1.756443,-2.93189 -2.447998,-4.05174 -2.073621,-3.35787 -4.230528,-6.98806 -4.904058,-8.25381 -0.348457,-0.65484 -0.782727,-1.36921 -0.965044,-1.5875 -0.182317,-0.21828 -0.967457,-1.52796 -1.744755,-2.91041 -0.777298,-1.38245 -1.483257,-2.57307 -1.568798,-2.64584 -0.307335,-0.26141 -1.069347,-1.57457 -1.069347,-1.84277 0,-0.61962 1.100537,-0.20098 2.409978,0.91673 0.767169,0.65485 1.496291,1.19063 1.620271,1.19063 0.12398,0 0.369221,0.12013 0.544981,0.26697 0.175759,0.14683 1.629249,1.12428 3.229978,2.1721 1.600729,1.04783 3.029479,2.0062 3.175,2.12972 0.145521,0.12352 1.03849,0.73164 1.984375,1.35139 0.945885,0.61975 2.196042,1.44843 2.778125,1.8415 0.582083,0.39308 1.283235,0.86133 1.558125,1.04057 0.27489,0.17923 1.0513,0.75358 1.72537,1.27634 0.67407,0.52275 1.52072,1.10547 1.88146,1.29493 0.36073,0.18946 1.37025,0.89784 2.24338,1.57418 0.87312,0.67635 2.2905,1.70097 3.14973,2.27695 0.85922,0.57597 2.40703,1.81735 3.43958,2.75861 2.26193,2.06196 9.406081,9.22036 10.845851,10.86747 0.56704,0.64871 2.49367,2.72729 4.28139,4.61906 1.78771,1.89177 3.64549,3.95857 4.12838,4.59288 0.48289,0.63432 1.62212,1.92527 2.53163,2.86877 1.09137,1.13217 1.65365,1.9311 1.65365,2.34963 0,0.3801 -0.5035,1.2052 -1.25678,2.05954 -0.69122,0.78396 -2.14974,2.4695 -3.24114,3.74566 -1.09141,1.27616 -2.47169,2.8811 -3.0673,3.56655 -1.36262,1.56814 -3.36072,4.07619 -6.21763,7.80447 -1.22661,1.60073 -2.97227,3.86291 -3.87925,5.02708 -2.35987,3.02905 -5.579091,7.28066 -6.811861,8.99641 -0.58209,0.81014 -1.77271,2.42107 -2.64584,3.57985 -0.87312,1.15879 -2.24234,3.00588 -3.0427,4.10465 -1.18593,1.62809 -2.92982,3.9516 -4.16106,5.54409 -0.11252,0.14552 -0.68082,0.96707 -1.2629,1.82566 -0.58209,0.85859 -1.29646,1.88674 -1.587502,2.28478 -0.291041,0.39804 -1.277928,1.77916 -2.193082,3.06914 -0.915154,1.28998 -2.259834,3.17886 -2.988178,4.1975 -0.728345,1.01865 -2.052499,2.92365 -2.942565,4.23334 -0.890066,1.30968 -2.117318,3.04394 -2.727228,3.8539 -0.609909,0.80997 -1.540514,2.11965 -2.068011,2.91042 -0.527497,0.79077 -1.5575,2.2712 -2.288895,3.28984 -2.220891,3.09313 -3.291539,4.69262 -4.173698,6.23526 -1.040468,1.81948 -1.662467,2.42013 -2.176902,2.1022 z m 36.904391,-7.58329 c -2.20126,-0.24562 -8.53998,-1.42638 -10.31875,-1.92215 -1.01864,-0.28391 -2.52772,-0.70418 -3.35351,-0.93393 -0.82578,-0.22975 -2.373591,-0.78238 -3.439578,-1.22807 -1.065988,-0.44569 -2.354879,-0.93163 -2.864202,-1.07987 -0.509323,-0.14824 -1.039151,-0.37753 -1.177396,-0.50953 -0.138245,-0.13199 -0.447213,-0.23999 -0.686597,-0.23999 -0.475457,0 -1.311007,-0.79795 -1.311007,-1.25201 0,-0.49482 4.016353,-5.62716 4.403586,-5.62716 0.203669,0 1.436743,0.41672 2.740164,0.92604 1.30342,0.50933 2.54399,0.92604 2.75681,0.92604 0.21283,0 0.45062,0.10301 0.52842,0.2289 0.0778,0.12589 0.88851,0.3752 1.80155,0.55403 0.91305,0.17883 1.80651,0.4456 1.98547,0.59281 0.31774,0.26139 2.25516,0.61979 7.61212,1.40814 7.483591,1.10132 7.124971,1.0946 14.948961,0.2801 2.25557,-0.23482 4.45823,-0.53386 4.89479,-0.66454 0.43657,-0.13069 1.61688,-0.38399 2.62291,-0.56289 1.00604,-0.1789 2.13713,-0.48598 2.51354,-0.68241 0.37641,-0.19642 0.86298,-0.35945 1.08126,-0.3623 0.85893,-0.0112 5.73099,-1.88896 9.54591,-3.67916 0.95739,-0.44926 1.82458,-0.81684 1.92711,-0.81684 0.27979,0 5.14613,-2.97309 7.08642,-4.32946 4.02591,-2.8143 9.59736,-8.1095 12.98307,-12.33929 3.77152,-4.71179 7.96307,-12.15013 9.98059,-17.71158 0.44563,-1.2284 0.81023,-2.40103 0.81023,-2.60585 0,-0.20481 0.16451,-0.74757 0.36558,-1.20613 0.58116,-1.32541 1.44315,-5.07227 1.92656,-8.37436 0.56277,-3.8441 0.78804,-13.86302 0.35397,-15.7427 -0.16802,-0.72761 -0.46128,-2.45402 -0.65167,-3.83646 -0.1904,-1.38245 -0.60305,-3.46604 -0.917,-4.63021 -0.31395,-1.16417 -0.69006,-2.59292 -0.83581,-3.175 -0.60375,-2.41133 -2.45127,-7.22495 -3.80812,-9.92188 -3.09694,-6.15557 -7.65606,-12.55774 -12.16574,-17.08383 -3.87589,-3.889995 -10.14249,-8.591405 -14.2588,-10.697425 -0.99549,-0.50932 -1.92066,-1.13234 -2.05593,-1.3845 -0.22889,-0.42668 0.16281,-2.19874 0.83441,-3.77487 0.12402,-0.291042 0.30364,-0.945886 0.39916,-1.455209 0.19065,-1.016551 0.79437,-2.116666 1.16159,-2.116666 0.23155,0 5.71758,3.096199 7.89349,4.45492 7.30334,4.560485 15.39671,12.655055 20.85449,20.8576 1.33646,2.00858 4.52612,8.00477 5.32445,10.00936 0.17387,0.43656 0.68547,1.74625 1.1369,2.91042 0.45143,1.16416 0.93747,2.35479 1.08007,2.64583 0.14261,0.29104 0.42857,1.18401 0.63546,1.98437 0.2069,0.80037 0.62547,2.34818 0.93015,3.43959 0.64536,2.31177 1.46519,7.1546 1.88118,11.1125 0.33519,3.18904 0.16135,13.45424 -0.26212,15.47812 -0.15224,0.72761 -0.40653,2.39448 -0.5651,3.70417 -0.15856,1.30969 -0.4596,2.97656 -0.66897,3.70416 -0.20937,0.72761 -0.72767,2.58005 -1.15178,4.11653 -0.42411,1.53649 -1.2724,4.0368 -1.88507,5.55625 -0.61268,1.51945 -1.27209,3.17936 -1.46536,3.68868 -0.44266,1.16657 -2.19697,4.51212 -3.26749,6.23125 -0.44844,0.72016 -0.94677,1.6368 -1.10739,2.03698 -0.16062,0.40018 -0.38034,0.72761 -0.48827,0.72761 -0.10793,0 -0.32004,0.26789 -0.47135,0.59531 -0.15132,0.32742 -1.08349,1.66687 -2.07148,2.97656 -6.08251,8.06295 -13.27561,14.51071 -21.4862,19.25983 -4.15024,2.40057 -10.6219,5.47412 -11.53403,5.4778 -0.12353,5e-4 -0.59978,0.1598 -1.05833,0.354 -2.95352,1.25082 -9.17129,2.8199 -13.26915,3.34854 -2.41651,0.31174 -14.4663,0.57605 -16.404171,0.35983 z M 64.354651,203.55653 c -7.137665,-5.40751 -13.473742,-11.92178 -17.102997,-17.58399 -1.713491,-2.67331 -2.060766,-3.24011 -3.469259,-5.66231 -0.816651,-1.40441 -1.484821,-2.63217 -1.484821,-2.72837 0,-0.19407 -1.194894,-2.89205 -1.638607,-3.69984 -0.409215,-0.74498 -2.055487,-5.30116 -2.58635,-7.15791 -0.249635,-0.87313 -0.530443,-1.7661 -0.624019,-1.98438 -0.230626,-0.53798 -0.986478,-4.0373 -1.250131,-5.78765 -0.328245,-2.17919 -0.17825,-2.29413 3.420728,-2.62147 3.294069,-0.29961 3.923869,-0.1752 4.100276,0.80999 0.935357,5.22374 2.135264,9.63555 3.327679,12.2352 0.26847,0.58531 0.993287,2.18609 1.610704,3.55729 0.617417,1.37119 1.462996,3.07043 1.879064,3.77609 0.416069,0.70565 0.756489,1.33985 0.756489,1.40933 0,0.56162 6.153105,8.76188 8.468116,11.28548 1.788686,1.94985 5.884702,5.57447 8.25877,7.30829 2.122341,1.54999 2.203295,1.78103 1.279156,3.65065 -0.421588,0.85292 -0.906587,2.08654 -1.077777,2.74138 -0.60909,2.32993 -1.284313,2.40889 -3.867021,0.45222 z M 146.14653,175.1114 c -2.39642,-1.53809 -5.26473,-3.22409 -8.20208,-4.82121 -0.87313,-0.47474 -2.06375,-1.12662 -2.64584,-1.44861 -1.37768,-0.76209 -4.93422,-2.89661 -6.61458,-3.96985 -1.66438,-1.06304 -5.00025,-3.01089 -6.21771,-3.63058 -0.50932,-0.25925 -2.23573,-1.3343 -3.83646,-2.38899 -3.67488,-2.42133 -3.75189,-2.66862 -1.55001,-4.97706 0.84043,-0.8811 2.31329,-2.63638 3.27301,-3.90061 0.95973,-1.26423 1.92945,-2.33413 2.15493,-2.37755 0.38391,-0.0739 4.32904,3.78166 8.05685,7.874 0.85744,0.94128 2.39241,2.61399 3.41106,3.71713 1.01864,1.10314 2.50692,2.76913 3.30729,3.7022 0.80036,0.93307 2.82442,3.1968 4.49791,5.03051 5.82486,6.38253 7.27735,8.00503 7.48763,8.364 0.4601,0.78545 -0.81913,0.30466 -3.122,-1.17338 z M 32.225174,154.93794 c -0.633637,-0.39318 0.547465,-1.32668 1.897635,-1.49982 0.639819,-0.0821 1.580025,-0.35619 2.089348,-0.6092 0.509323,-0.25302 1.342761,-0.54784 1.852084,-0.65516 0.509323,-0.10732 1.045104,-0.29029 1.190625,-0.40659 0.14552,-0.1163 1.070807,-0.5149 2.056192,-0.88577 0.985385,-0.37087 2.17601,-0.85286 2.645833,-1.0711 0.469823,-0.21824 1.866256,-0.76137 3.103183,-1.20695 1.236927,-0.44558 2.606145,-0.9786 3.042708,-1.18449 0.436562,-0.20588 1.448594,-0.6143 2.248958,-0.9076 3.36122,-1.23173 5.208723,-1.93929 5.993111,-2.29525 0.458555,-0.2081 0.994336,-0.3824 1.190625,-0.38734 0.196289,-0.005 0.833139,-0.23902 1.415222,-0.52019 0.582083,-0.28116 1.218933,-0.51525 1.415222,-0.52019 0.196289,-0.005 0.73207,-0.1773 1.190625,-0.38303 0.458555,-0.20573 1.309986,-0.51168 1.89207,-0.67989 0.582083,-0.16821 1.296458,-0.41107 1.5875,-0.53968 0.291041,-0.12861 1.66026,-0.6075 3.042708,-1.0642 1.382448,-0.45669 2.870729,-0.98883 3.307291,-1.18252 0.436563,-0.1937 1.143002,-0.43928 1.569865,-0.54573 0.426864,-0.10646 1.081708,-0.35303 1.455209,-0.54794 0.373501,-0.19492 0.834453,-0.35512 1.024338,-0.35602 0.189885,-9e-4 0.844729,-0.21869 1.455208,-0.48399 0.61048,-0.2653 1.64371,-0.71178 2.296068,-0.99219 1.819865,-0.78224 4.579387,-0.65806 7.545147,0.33953 1.30968,0.44054 3.45281,1.11548 4.7625,1.49986 1.30968,0.38438 2.91703,0.8847 3.57187,1.11182 0.65485,0.22712 1.66688,0.53372 2.24896,0.68135 0.58208,0.14762 1.296461,0.37037 1.587501,0.495 0.29104,0.12462 0.91053,0.30129 1.37664,0.39258 0.98649,0.19323 2.19524,1.0664 2.19524,1.58581 0,0.19781 -0.3563,0.61336 -0.79178,0.92344 -0.71837,0.51153 -8.459261,4.51753 -15.009341,7.76752 l -2.58743,1.28381 -4.36562,0.23124 c -2.401094,0.12718 -7.342187,0.35548 -10.980208,0.50734 -3.638021,0.15185 -8.340989,0.3925 -10.451041,0.53477 -2.110052,0.14227 -5.681927,0.3746 -7.9375,0.5163 -2.255573,0.14171 -6.303698,0.43537 -8.995833,0.65259 -6.672405,0.53838 -10.677708,0.68299 -11.130733,0.40188 z m 3.213899,-4.5931 c -0.608918,-0.7337 -0.06832,-12.1933 0.756909,-16.04506 0.138783,-0.64776 0.436178,-2.07072 0.660878,-3.16213 0.224699,-1.09141 0.519432,-2.28203 0.654961,-2.64583 0.135529,-0.3638 0.564668,-1.73302 0.953643,-3.04271 0.639123,-2.15195 1.334942,-4.10588 1.978651,-5.55625 0.129171,-0.29104 0.614898,-1.42214 1.079392,-2.51354 1.684583,-3.9582 3.804116,-7.53496 8.582365,-14.48294 2.122545,-3.086355 9.340999,-10.442485 12.034641,-12.264175 0.557611,-0.37711 1.773618,-1.28274 2.702238,-2.01251 3.423293,-2.690265 11.644645,-7.226252 14.309729,-7.895145 0.396509,-0.09952 0.776456,-0.270792 0.844327,-0.380609 0.107427,-0.17382 1.468572,-0.627863 6.750762,-2.251878 0.65485,-0.201332 1.60735,-0.440217 2.11667,-0.530855 0.50932,-0.09064 1.16417,-0.270841 1.45521,-0.400452 0.4603,-0.204986 2.52689,-0.543265 7.67291,-1.255968 2.311621,-0.320149 17.971971,-0.232105 18.679761,0.10502 0.34916,0.166303 1.64686,0.447574 2.88379,0.625047 2.65203,0.380509 4.56998,0.948536 5.3584,1.586964 0.65091,0.527076 0.8258,0.16332 -1.84317,3.833709 -1.91681,2.63602 -2.41228,2.907499 -4.33534,2.37544 -3.97082,-1.098621 -12.53186,-1.708805 -16.77412,-1.195569 -8.292681,1.003263 -10.910121,1.568253 -17.463071,3.769506 -4.461408,1.49866 -11.396249,4.99982 -14.419786,7.28005 -6.859223,5.17294 -9.873931,7.968375 -13.344426,12.373775 -3.785857,4.80572 -5.327396,7.32652 -8.460383,13.83483 -2.884884,5.99291 -4.94639,14.61034 -5.45284,22.79375 -0.147877,2.38944 -0.38966,4.48999 -0.537297,4.66789 -0.147637,0.17789 -0.651437,0.47411 -1.119555,0.65827 -0.468118,0.18415 -1.331503,0.54545 -1.918635,0.80287 -0.587132,0.25743 -1.391928,0.54947 -1.788437,0.64899 -0.396509,0.0995 -0.786359,0.28681 -0.866332,0.41621 -0.218109,0.35291 -0.803128,0.28348 -1.151845,-0.1367 z m 83.918397,-8.34228 c -2.57254,-2.67549 -2.71198,-2.87839 -2.71198,-3.94602 0,-0.61903 0.23518,-1.56582 0.52263,-2.10397 0.78444,-1.46859 1.27357,-2.69763 1.60035,-4.02117 0.47059,-1.90602 1.83803,-3.14857 4.35931,-3.96119 0.58208,-0.18761 1.1774,-0.42913 1.32292,-0.53673 0.14552,-0.10759 0.74083,-0.34571 1.32291,-0.52916 0.58209,-0.18345 1.1774,-0.42335 1.32292,-0.5331 0.14552,-0.10975 0.6813,-0.28452 1.19062,-0.38836 0.50933,-0.10385 1.16417,-0.33689 1.45521,-0.51787 0.29104,-0.18098 0.88223,-0.41612 1.31374,-0.52253 0.43152,-0.10642 1.28819,-0.42291 1.90371,-0.70331 0.61553,-0.28041 1.25651,-0.50983 1.4244,-0.50983 0.1679,0 0.68045,-0.16833 1.139,-0.37406 0.45855,-0.20573 1.30999,-0.5189 1.89207,-0.69594 0.58208,-0.17703 1.1774,-0.40984 1.32292,-0.51733 0.14552,-0.1075 0.91942,-0.3457 1.71979,-0.52934 0.80036,-0.18363 1.57427,-0.42506 1.71979,-0.53649 0.14552,-0.11144 0.80036,-0.35481 1.45521,-0.54084 0.65484,-0.18603 1.30969,-0.4227 1.45521,-0.52594 0.14552,-0.10324 0.6813,-0.27355 1.19062,-0.37846 0.50932,-0.10491 1.28323,-0.35125 1.71979,-0.54741 0.85495,-0.38415 4.36336,-1.70419 4.52942,-1.70419 0.51691,0 -0.74361,1.56198 -2.03765,2.52496 -0.39954,0.29733 -2.59536,2.26186 -4.87961,4.36563 -4.45064,4.099 -4.78949,4.40637 -6.37034,5.77873 -0.56727,0.49246 -3.12132,2.87371 -5.67566,5.29167 -9.79217,9.26936 -10.12021,9.55777 -10.82699,9.51922 -0.47945,-0.0262 -1.43477,-0.83356 -3.38031,-2.85697 z m -4.17757,-5.29628 c -0.29676,-0.12026 -1.01096,-0.79732 -1.58712,-1.50458 -1.68388,-2.06703 -9.60484,-10.55746 -12.79681,-13.71683 -1.818491,-1.79991 -2.935901,-3.1102 -2.935901,-3.44268 0,-0.29523 0.74414,-1.4371 1.65365,-2.53749 0.909501,-1.10039 2.308491,-2.86767 3.108851,-3.92728 0.80037,-1.05961 1.6338,-2.12527 1.85209,-2.36813 0.69554,-0.77386 4.34043,-5.18964 5.02708,-6.09031 0.3638,-0.47719 1.47307,-1.83937 2.46505,-3.02708 0.99197,-1.187705 2.004,-2.430335 2.24896,-2.761405 0.24495,-0.33106 0.56773,-0.74778 0.71729,-0.92604 0.35769,-0.42633 2.65131,-3.29758 3.38501,-4.2375 0.31702,-0.40612 1.70749,-2.09994 3.08994,-3.76403 1.38245,-1.664095 3.16838,-3.879313 3.96875,-4.922706 0.80036,-1.043394 2.16958,-2.812181 3.04271,-3.930638 0.87312,-1.118457 1.82562,-2.371917 2.11666,-2.785466 0.29104,-0.41355 0.79706,-1.012728 1.12448,-1.331507 0.32742,-0.31878 0.59531,-0.672479 0.59531,-0.785998 0,-0.11352 0.24622,-0.457054 0.54716,-0.76341 1.19647,-1.218022 2.35964,-2.710765 2.65033,-3.401282 0.16846,-0.400183 0.41091,-0.727604 0.53878,-0.727604 0.12787,0 0.23248,-0.121429 0.23248,-0.269842 0,-0.552297 1.3448,-2.375992 1.75206,-2.375992 0.56243,0 0.40292,1.009843 -0.6478,4.101042 -1.40784,4.141863 -2.4896,7.624214 -2.83556,9.128125 -0.18412,0.800364 -0.45901,1.812395 -0.61088,2.248958 -0.3795,1.09088 -1.39248,4.42815 -2.81088,9.26042 -1.59265,5.42591 -3.02146,10.051205 -3.35106,10.847915 -0.1204,0.29104 -0.58631,1.71979 -1.03536,3.175 -0.44904,1.45521 -0.9285,2.88396 -1.06546,3.175 -0.13695,0.29104 -0.41269,1.12448 -0.61275,1.85209 -0.41302,1.50214 -3.22741,9.77772 -3.59922,10.58333 -0.13432,0.29104 -0.65003,1.71979 -1.14602,3.175 -1.05982,3.10949 -2.59189,7.2642 -3.19216,8.6566 -0.23324,0.54103 -0.42407,1.39573 -0.42407,1.89934 0,0.5036 -0.1871,1.10273 -0.41578,1.33141 -0.22867,0.22868 -0.43703,0.40823 -0.46302,0.399 -0.026,-0.009 -0.29004,-0.11516 -0.58679,-0.23543 z"
       id="path1" /></g></svg>
